P3
8 8
255
255
255
255
253
250
250
250
243
243
251
244
244
255
255
255
255
255
255
255
255
255
255
255
255
255
255
255
253
251
251
253
251
251
253
251
251
255
255
255
204
240
221
204
240
221
255
255
255
253
251
251
242
223
223
230
192
192
241
221
221
255
255
255
195
238
214
195
238
214
255
255
255
255
255
255
236
207
207
219
164
164
231
195
195
255
255
255
140
222
177
210
242
225
255
255
255
255
255
255
241
222
222
233
203
203
244
229
229
254
253
253
144
223
180
215
243
228
255
255
255
255
255
255
252
247
247
252
247
247
183
222
227
183
228
233
255
255
255
255
255
255
255
255
255
255
255
255
255
255
255
255
255
255
186
230
235
183
229
234
255
255
255
255
255
255
255
255
255
255
255
255
255
255
255
255
255
255
255
255
255
255
255
255
255
255
255
255
255
255
255
255
255
